<svg xmlns="http://www.w3.org/2000/svg" xmlns:xlink="http://www.w3.org/1999/xlink" viewBox="0 0 2000 2000">
  <defs>
    <linearGradient id="f3a396a3-0a14-4584-b971-9c14729034ea" x1="469.64" y1="1837.85" x2="1532.02" y2="775.47" gradientUnits="userSpaceOnUse">
      <stop offset="0" stop-color="#f36"/>
      <stop offset="1" stop-color="#ff33ad"/>
    </linearGradient>
  </defs>
  <title>LunaIconLogo_DarkBG</title>
  <g id="b04bc6ea-fb38-409a-ab5d-1f32c804bcd9" data-name="Layer 2">
    <g id="b56b06bf-07d5-40d9-b477-ae7b64df209b" data-name="Layer 4">
      <g>
        <path d="M1000.11,575.73c138.62-5,143.45-205.35,0-212.57C861.49,368.12,856.66,568.51,1000.11,575.73Z" style="fill: none"/>
        <path d="M298.52,1471.94c-72.34,116.75,91.28,233.82,177.32,117.24C548.19,1472.41,384.56,1355.38,298.52,1471.94Z" style="fill: none"/>
        <path d="M1296.18,1005.54C1286,987.91,1217,857.71,1124,751.59c-64.8-74-180-74.13-245-.29C785.39,857.71,715.7,989.13,705.47,1006.85s-88.71,142.87-134.16,276.63c-31.69,93.24,26.07,193.14,122.67,212.27,138.95,27.52,287,22,306.13,22h0c19.24,0,168.59,5.63,308.11-22.29,96.45-19.29,154-119,122.52-212.14C1385.35,1149.15,1306.4,1023.24,1296.18,1005.54Z" style="fill: none"/>
        <path d="M1614.81,1424.27c-138.61,5-143.45,205.35,0,212.58C1753.43,1631.88,1758.27,1431.5,1614.81,1424.27Z" style="fill: none"/>
        <path d="M1662.23,1378.33l.85-.49c-169.73-56.89-329.14-359.7-344-385.5s-197.58-315.18-162-490.61l-.91.53c32.11-185.67-207.45-265.12-296.26-108.62-66.7,134.89,91.74,143.21-174.74,595.74C426,1450.43,322.28,1336.28,257.21,1438.22c-107.29,163.2,96.75,332.61,237.14,210.46v.59c134.11-118.16,474.05-105.11,505.76-105.11h0c31.72,0,371.66-12.88,505.76,105.28v-2.59c74,68.67,186,51.8,239.67-25.12C1808.87,1530,1761.77,1409.3,1662.23,1378.33ZM475.84,1589.18c-86,116.58-249.66-.49-177.32-117.24C384.56,1355.38,548.19,1472.41,475.84,1589.18Zm524.27-1226c143.45,7.22,138.62,207.61,0,212.57C856.66,568.51,861.49,368.12,1000.11,363.16ZM1277.5,1456.65c-125.57,25.12-260,20-277.3,20h0c-19.15,0-150.46,5-275.52-19.81-86.94-17.22-138.92-107.13-110.4-191.05,40.9-120.38,111.57-233.07,120.74-249s71.93-134.23,156.21-230c58.48-66.46,162.17-66.34,220.48.26,83.65,95.51,145.79,212.69,155,228.56s80.26,129.24,121.11,250C1416.13,1349.58,1364.3,1439.28,1277.5,1456.65Zm337.31,180.2c-143.45-7.23-138.61-207.61,0-212.58C1758.27,1431.5,1753.43,1631.88,1614.81,1636.85Z" style="fill: url(#f3a396a3-0a14-4584-b971-9c14729034ea)"/>
      </g>
    </g>
  </g>
</svg>
